<svg width="106" height="120" viewBox="0 0 106 120" fill="none" xmlns="http://www.w3.org/2000/svg">
<g clip-path="url(#clip0_4_93)">
<path d="M105.109 60.0107C105.109 53.0343 96.3896 46.4228 83.0206 42.3228C86.1058 28.6704 84.7346 17.8086 78.6929 14.3312C77.3003 13.5155 75.672 13.1291 73.8937 13.1291V17.916C74.8793 17.916 75.672 18.1092 76.3361 18.4741C79.2499 20.1484 80.514 26.5238 79.5284 34.7238C79.2928 36.7416 78.9071 38.8668 78.4358 41.0348C74.2365 40.0044 69.6516 39.2102 64.8311 38.695C61.9388 34.7238 58.9393 31.1175 55.9184 27.962C62.9029 21.4579 69.4588 17.8945 73.9152 17.8945V13.1076C68.0234 13.1076 60.3105 17.3149 52.5119 24.6134C44.7133 17.3579 37.0004 13.1935 31.1086 13.1935V17.9804C35.5435 17.9804 42.1209 21.5223 49.1054 27.9835C46.1059 31.139 43.1065 34.7238 40.257 38.695C35.415 39.2102 30.8301 40.0044 26.6309 41.0563C26.1381 38.9097 25.7739 36.8275 25.5168 34.8312C24.5098 26.6312 25.7525 20.2558 28.6448 18.56C29.2875 18.1736 30.1231 18.0018 31.1086 18.0018V13.2149C29.309 13.2149 27.6807 13.6013 26.2667 14.417C20.2463 17.8945 18.8966 28.7348 22.0031 42.3442C8.677 46.4657 0 53.0558 0 60.0107C0 66.9872 8.71984 73.5987 22.0888 77.6987C19.0037 91.351 20.3749 102.213 26.4166 105.69C27.8092 106.506 29.4375 106.892 31.2372 106.892C37.129 106.892 44.8419 102.685 52.6404 95.3866C60.439 102.642 68.1519 106.807 74.0437 106.807C75.8434 106.807 77.4717 106.42 78.8857 105.604C84.906 102.127 86.2558 91.2866 83.1492 77.6772C96.4325 73.5772 105.109 66.9657 105.109 60.0107ZM77.2145 45.6929C76.4218 48.462 75.4363 51.317 74.3222 54.172C73.4438 52.4547 72.5225 50.7374 71.5156 49.0202C70.5301 47.3029 69.4802 45.6285 68.4304 43.9971C71.4727 44.4479 74.4079 45.006 77.2145 45.6929ZM67.402 68.5542C65.7309 71.4521 64.017 74.1997 62.2387 76.7542C59.0464 77.0332 55.8113 77.1835 52.5547 77.1835C49.3196 77.1835 46.0845 77.0332 42.9136 76.7756C41.1354 74.2212 39.4 71.495 37.7289 68.6186C36.1006 65.8065 34.6223 62.9516 33.2725 60.0751C34.6009 57.1987 36.1006 54.3222 37.7074 51.5102C39.3786 48.6123 41.0925 45.8647 42.8708 43.3102C46.0631 43.0311 49.2982 42.8809 52.5547 42.8809C55.7899 42.8809 59.025 43.0312 62.1959 43.2887C63.9741 45.8432 65.7095 48.5694 67.3806 51.4458C69.0089 54.2578 70.4872 57.1128 71.837 59.9893C70.4872 62.8657 69.0089 65.7421 67.402 68.5542ZM74.3222 65.7636C75.4791 68.64 76.4647 71.5165 77.2788 74.307C74.4722 74.994 71.5156 75.5735 68.4519 76.0243C69.5017 74.3714 70.5515 72.6756 71.537 70.9369C72.5226 69.2196 73.4438 67.4809 74.3222 65.7636ZM52.5976 88.6678C50.6051 86.607 48.6126 84.3102 46.6415 81.7987C48.5698 81.8845 50.5408 81.9489 52.5333 81.9489C54.5472 81.9489 56.5397 81.906 58.4894 81.7987C56.5612 84.3102 54.5687 86.607 52.5976 88.6678ZM36.6576 76.0243C33.6153 75.5735 30.6801 75.0154 27.8735 74.3285C28.6662 71.5594 29.6518 68.7044 30.7658 65.8495C31.6443 67.5667 32.5655 69.284 33.5725 71.0013C34.5794 72.7186 35.6078 74.3929 36.6576 76.0243ZM52.4905 31.3537C54.483 33.4144 56.4755 35.7113 58.4465 38.2228C56.5183 38.1369 54.5472 38.0725 52.5547 38.0725C50.5408 38.0725 48.5483 38.1154 46.5987 38.2228C48.5269 35.7113 50.5194 33.4144 52.4905 31.3537ZM36.6362 43.9971C35.5864 45.65 34.5366 47.3458 33.5511 49.0845C32.5655 50.8018 31.6443 52.5191 30.7658 54.2364C29.6089 51.3599 28.6234 48.4835 27.8092 45.6929C30.6159 45.0275 33.5725 44.4479 36.6362 43.9971ZM17.2469 70.8725C9.66253 67.6311 4.75628 63.3809 4.75628 60.0107C4.75628 56.6406 9.66253 52.3688 17.2469 49.1489C19.0894 48.3547 21.1033 47.6463 23.1815 46.9809C24.4027 51.1882 26.0096 55.5673 28.0021 60.0537C26.031 64.5186 24.4456 68.8762 23.2458 73.062C21.1247 72.3966 19.1108 71.6667 17.2469 70.8725ZM28.7733 101.547C25.8596 99.873 24.5955 93.4976 25.5811 85.2976C25.8167 83.2798 26.2024 81.1547 26.6737 78.9866C30.873 80.017 35.4579 80.8112 40.2784 81.3264C43.1707 85.2976 46.1702 88.9039 49.1911 92.0594C42.2066 98.5636 35.6507 102.127 31.1943 102.127C30.2302 102.105 29.4161 101.912 28.7733 101.547ZM79.5927 85.1903C80.5997 93.3903 79.357 99.7657 76.4647 101.461C75.8219 101.848 74.9864 102.02 74.0008 102.02C69.5659 102.02 62.9886 98.4777 56.0041 92.0165C59.0036 88.861 62.003 85.2762 64.8525 81.305C69.6945 80.7898 74.2794 79.9955 78.4786 78.9437C78.9714 81.1118 79.357 83.194 79.5927 85.1903ZM87.8412 70.8725C85.9987 71.6667 83.9847 72.3751 81.9066 73.0406C80.6853 68.8332 79.0785 64.4542 77.086 59.9678C79.0571 55.5029 80.6425 51.1453 81.8423 46.9594C83.9633 47.6249 85.9772 48.3547 87.8626 49.1489C95.447 52.3903 100.353 56.6406 100.353 60.0107C100.332 63.3809 95.4255 67.6526 87.8412 70.8725Z" fill="#81D8F7"/>
<path d="M52.5333 69.8207C57.9407 69.8207 62.3243 65.4286 62.3243 60.0107C62.3243 54.5928 57.9407 50.2008 52.5333 50.2008C47.1258 50.2008 42.7422 54.5928 42.7422 60.0107C42.7422 65.4286 47.1258 69.8207 52.5333 69.8207Z" fill="#81D8F7"/>
</g>
<defs>
<clipPath id="clip0_4_93">
<rect width="105.109" height="120" fill="white"/>
</clipPath>
</defs>
</svg>
